<svg width="48" height="48" viewBox="0 0 48 48" fill="none" xmlns="http://www.w3.org/2000/svg">
<path fill-rule="evenodd" clip-rule="evenodd" d="M6.92894 41.071C9.85786 44 14.5719 44 24 44C33.428 44 38.1422 44 41.071 41.071C44 38.1422 44 33.428 44 24C44 14.5719 44 9.85786 41.071 6.92894C38.1422 4 33.428 4 24 4C14.5719 4 9.85786 4 6.92894 6.92894C4 9.85786 4 14.5719 4 24C4 33.428 4 38.1422 6.92894 41.071ZM19 17.5C15.4101 17.5 12.5 20.4102 12.5 24C12.5 27.5898 15.4101 30.5 19 30.5C22.5898 30.5 25.5 27.5898 25.5 24C25.5 23.1716 26.1716 22.5 27 22.5C27.8284 22.5 28.5 23.1716 28.5 24C28.5 29.2468 24.2468 33.5 19 33.5C13.7533 33.5 9.5 29.2468 9.5 24C9.5 18.7533 13.7533 14.5 19 14.5C19.8284 14.5 20.5 15.1716 20.5 16C20.5 16.8284 19.8284 17.5 19 17.5ZM35.5 24C35.5 27.5898 32.5898 30.5 29 30.5C28.1716 30.5 27.5 31.1716 27.5 32C27.5 32.8284 28.1716 33.5 29 33.5C34.2468 33.5 38.5 29.2468 38.5 24C38.5 18.7533 34.2468 14.5 29 14.5C23.7532 14.5 19.5 18.7533 19.5 24C19.5 24.8284 20.1716 25.5 21 25.5C21.8284 25.5 22.5 24.8284 22.5 24C22.5 20.4102 25.4102 17.5 29 17.5C32.5898 17.5 35.5 20.4102 35.5 24Z" fill="white"/>
</svg>
