<svg width="48" height="48" viewBox="0 0 48 48" fill="none" xmlns="http://www.w3.org/2000/svg">
<path fill-rule="evenodd" clip-rule="evenodd" d="M29.748 6.12725C29.5958 5.82253 29.3806 5.55368 29.1166 5.33856C28.8526 5.12345 28.5458 4.96699 28.2167 4.8796C27.8875 4.79219 27.5435 4.77585 27.2075 4.83165C26.8715 4.88745 26.5512 5.01413 26.268 5.20325C25.44 5.75525 24.7944 6.54245 24.2952 7.31525C23.7816 8.10725 23.328 9.02645 22.9272 9.99365C22.1256 11.9232 21.4536 14.2368 20.9112 16.5552C20.2552 19.3885 19.764 22.2573 19.44 25.1472C18.4635 24.5178 17.6789 23.6318 17.172 22.5864C16.3848 20.9544 16.2168 18.9048 16.2168 16.2168C16.2166 15.7423 16.0758 15.2783 15.8122 14.8837C15.5485 14.4892 15.1737 14.1816 14.7352 14C14.2967 13.8184 13.8142 13.7709 13.3487 13.8635C12.8833 13.956 12.4557 14.1845 12.12 14.52C10.558 16.0787 9.31929 17.9306 8.47497 19.9693C7.63065 22.008 7.19737 24.1934 7.20002 26.4C7.20022 29.1627 7.88174 31.8827 9.1842 34.3192C10.4866 36.7555 12.3699 38.8331 14.667 40.3678C16.9642 41.9027 19.6043 42.8472 22.3538 43.1179C25.1032 43.3886 27.8768 42.9773 30.4293 41.92C32.9816 40.8627 35.2339 39.1923 36.9866 37.0566C38.7392 34.9211 39.9381 32.3862 40.4771 29.6766C41.0162 26.967 40.8787 24.1664 40.0768 21.5226C39.2749 18.8789 37.8334 16.4736 35.88 14.52C34.4592 13.1016 33.528 12.156 32.6448 10.9992C31.7736 9.85685 30.9072 8.44805 29.748 6.12725ZM29.088 36.288C28.0811 37.2938 26.7987 37.9784 25.4029 38.2557C24.007 38.533 22.5603 38.3904 21.2456 37.8461C19.9307 37.3016 18.8067 36.3797 18.0155 35.1968C17.2242 34.0139 16.8013 32.6232 16.8 31.2C16.8 31.2 18.9096 32.4 22.8 32.4C22.8 30 24 22.8 25.8 21.6C27 24 27.6864 24.7032 29.0904 26.1096C29.7602 26.7773 30.2912 27.5707 30.6533 28.4443C31.0154 29.3179 31.2011 30.2544 31.2 31.2C31.2011 32.1458 31.0154 33.0822 30.6533 33.9558C30.2912 34.8294 29.7602 35.6229 29.0904 36.2904L29.088 36.288Z" fill="#2AA3EF"/>
</svg>
