<svg width="48" height="48" viewBox="0 0 48 48" fill="none" xmlns="http://www.w3.org/2000/svg">
<path d="M25.6968 5.50322C25.2467 5.05329 24.6363 4.80054 24 4.80054C23.3637 4.80054 22.7533 5.05329 22.3032 5.50322L5.50317 22.3032C5.06599 22.7558 4.82409 23.3621 4.82956 23.9914C4.83503 24.6206 5.08743 25.2226 5.53241 25.6675C5.97738 26.1126 6.57933 26.365 7.20861 26.3704C7.83788 26.3758 8.44413 26.1339 8.89677 25.6968L9.59997 24.9936V40.8C9.59997 41.4365 9.85284 42.047 10.3029 42.4971C10.753 42.9472 11.3635 43.2 12 43.2H16.8C17.4365 43.2 18.047 42.9472 18.4971 42.4971C18.9472 42.047 19.2 41.4365 19.2 40.8V36C19.2 35.3635 19.4528 34.7531 19.9029 34.303C20.3529 33.8528 20.9635 33.6 21.6 33.6H26.4C27.0365 33.6 27.647 33.8528 28.0971 34.303C28.5472 34.7531 28.8 35.3635 28.8 36V40.8C28.8 41.4365 29.0528 42.047 29.5029 42.4971C29.9529 42.9472 30.5635 43.2 31.2 43.2H36C36.6365 43.2 37.247 42.9472 37.6971 42.4971C38.1472 42.047 38.4 41.4365 38.4 40.8V24.9936L39.1032 25.6968C39.5558 26.1339 40.1621 26.3758 40.7913 26.3704C41.4206 26.365 42.0225 26.1126 42.4675 25.6675C42.9125 25.2226 43.1649 24.6206 43.1704 23.9914C43.1758 23.3621 42.9339 22.7558 42.4968 22.3032L25.6968 5.50322Z" fill="#2AA3EF"/>
</svg>
