<svg width="32" height="32" viewBox="0 0 32 32" fill="none" xmlns="http://www.w3.org/2000/svg">
<path d="M5.75725 8.42399C5.2001 8.98114 4.75813 9.64258 4.4566 10.3705C4.15508 11.0985 3.99988 11.8787 3.99988 12.6667C3.99988 13.4546 4.15508 14.2348 4.4566 14.9628C4.75813 15.6907 5.2001 16.3522 5.75725 16.9093L15.9999 27.152L26.2425 16.9093C27.3678 15.7841 28 14.258 28 12.6667C28 11.0753 27.3678 9.54922 26.2425 8.42399C25.1174 7.29877 23.5912 6.66663 22 6.66663C20.4086 6.66663 18.8825 7.29877 17.7573 8.42399L15.9999 10.1813L14.2426 8.42399C13.6854 7.86683 13.024 7.42487 12.2961 7.12333C11.5681 6.82179 10.7879 6.66661 9.99993 6.66661C9.21199 6.66661 8.43177 6.82179 7.70381 7.12333C6.97585 7.42487 6.31441 7.86683 5.75725 8.42399Z" stroke="#F1F1F1" stroke-width="2" stroke-linecap="round" stroke-linejoin="round"/>
</svg>
